<?xml version="1.0" encoding="UTF-8"?>
<svg version="1.1" xmlns="http://www.w3.org/2000/svg" width="512" height="512">
<path d="M0 0 C32.01 0 64.02 0 97 0 C97 4.91471091 96.84172833 5.88075449 94.46484375 9.7890625 C93.63339844 11.1802832 93.63339844 11.1802832 92.78515625 12.59960938 C92.17542969 13.59798828 91.56570313 14.59636719 90.9375 15.625 C89.64191772 17.79271093 88.34904517 19.96204322 87.05859375 22.1328125 C86.38683105 23.26106445 85.71506836 24.38931641 85.02294922 25.55175781 C81.74287615 31.14284543 78.62329664 36.82031067 75.5 42.5 C70.77503892 51.0665466 65.9606473 59.56773967 61 68 C55.3343635 77.63318477 49.86953085 87.36629386 44.46264648 97.14672852 C39.27240299 106.53067258 33.97847903 115.85062391 28.63671875 125.14892578 C25.43835474 130.72030032 22.25055133 136.29772033 19.0625 141.875 C18.72066681 142.47287323 18.37883362 143.07074646 18.02664185 143.68673706 C12.96848691 152.53481409 7.94065135 161.39961521 2.93383789 170.27685547 C-1.69056447 178.46914082 -6.35841694 186.63628616 -11.03076172 194.80126953 C-15.54331103 202.68804811 -20.03616761 210.5855123 -24.5 218.5 C-29.51512621 227.39023479 -34.56216235 236.26188059 -39.625 245.125 C-39.97328857 245.73512939 -40.32157715 246.34525879 -40.68041992 246.97387695 C-41.67434098 248.7147133 -42.66918513 250.45502251 -43.6640625 252.1953125 C-44.23592285 253.19578613 -44.8077832 254.19625977 -45.39697266 255.22705078 C-47 258 -47 258 -48.77099609 260.48779297 C-50.39551521 263.80847269 -49.98830118 265.47996438 -49 269 C-47.92964177 271.55558695 -47.92964177 271.55558695 -46.515625 274.02734375 C-45.99935547 274.97222656 -45.48308594 275.91710937 -44.95117188 276.890625 C-44.38978516 277.89609375 -43.82839844 278.9015625 -43.25 279.9375 C-42.66798828 280.99582031 -42.08597656 282.05414063 -41.48632812 283.14453125 C-37.01496806 291.24977382 -32.45509276 299.30545931 -27.87792969 307.35131836 C-23.9966868 314.18773074 -20.22552515 321.07765089 -16.5 328 C-11.79846624 336.73262585 -6.98263427 345.3907086 -2.08154297 354.01269531 C2.29654375 361.72615681 6.59774859 369.48038239 10.875 377.25 C11.54987995 378.47558931 12.22476602 379.70117524 12.8996582 380.92675781 C13.23441666 381.5346817 13.56917511 382.14260559 13.91407776 382.76895142 C14.24922897 383.37758026 14.58438019 383.98620911 14.9296875 384.61328125 C15.26520126 385.22263519 15.60071503 385.83198914 15.94639587 386.45980835 C19.29855596 392.54598901 22.66347875 398.62504797 26.03591919 404.70001221 C26.98651158 406.41319088 27.93552802 408.1272437 28.88452148 409.84130859 C31.44885402 414.46272022 34.02046608 419.07401262 36.71484375 423.62109375 C37.09962891 424.27343994 37.48441406 424.92578613 37.88085938 425.59790039 C38.83599471 427.20428442 39.80581596 428.80191412 40.77734375 430.3984375 C42.10456463 433.22249214 42.10032473 434.93128132 42 438 C29.70015163 438.18532111 17.40063503 438.32748734 5.09967518 438.41449738 C-0.61219257 438.45625753 -6.32310561 438.51290189 -12.03442383 438.60351562 C-17.54581903 438.69041068 -23.05629583 438.73826789 -28.56832314 438.75901794 C-30.67160824 438.77380548 -32.77484276 438.80268338 -34.87773705 438.84584045 C-37.82348756 438.90389334 -40.76543986 438.91191471 -43.71166992 438.90820312 C-44.5820137 438.93696533 -45.45235748 438.96572754 -46.34907532 438.99536133 C-48.8130123 438.96175169 -50.68559744 438.85283523 -53 438 C-55.25462594 435.583248 -56.61425861 432.97940345 -58 430 C-58.54333984 429.06341553 -59.08667969 428.12683105 -59.64648438 427.16186523 C-60.36288086 425.87324585 -60.36288086 425.87324585 -61.09375 424.55859375 C-61.64224609 423.57503906 -62.19074219 422.59148437 -62.75585938 421.578125 C-63.33142578 420.54171875 -63.90699219 419.5053125 -64.5 418.4375 C-65.74959676 416.1963897 -66.99960568 413.95550916 -68.25 411.71484375 C-68.87777344 410.58933105 -69.50554687 409.46381836 -70.15234375 408.30419922 C-72.91733875 403.35950547 -75.70757894 398.42924143 -78.5 393.5 C-83.61763777 384.4607619 -88.69933274 375.40185536 -93.76953125 366.3359375 C-97.66158055 359.38030171 -101.57339742 352.43618197 -105.5 345.5 C-111.77391776 334.41560224 -117.99930389 323.30438436 -124.21630859 312.18798828 C-126.62807819 307.87743703 -129.0428878 303.56859563 -131.45947266 299.26074219 C-132.64110542 297.15010827 -133.81924241 295.03751296 -134.99365234 292.92285156 C-137.66029776 288.12701232 -140.35981019 283.36703454 -143.20703125 278.67578125 C-143.9345459 277.45072876 -143.9345459 277.45072876 -144.67675781 276.20092773 C-145.56995066 274.70172965 -146.48335162 273.21429927 -147.42089844 271.74243164 C-149.40417829 268.37126737 -150.16228258 266.62999323 -149.171875 262.78515625 C-148.4758474 261.50781704 -147.74677914 260.24834722 -147 259 C-145.97264827 257.0846397 -144.94530547 255.1692746 -143.91796875 253.25390625 C-142.67872063 251.02107816 -141.43497931 248.79073979 -140.1875 246.5625 C-139.5156961 245.35759037 -138.84390265 244.15267491 -138.17211914 242.94775391 C-133.28712898 234.20671969 -128.26983765 225.54703424 -123.19750977 216.91333008 C-118.48541409 208.87784865 -113.92062491 200.7662687 -109.38598633 192.62963867 C-105.01227319 184.78872856 -100.58477981 176.97968285 -96.125 169.1875 C-95.79230103 168.60604218 -95.45960205 168.02458435 -95.11682129 167.42550659 C-92.40623208 162.68885265 -89.69281413 157.95382098 -86.97924805 153.21887207 C-84.60983993 149.0841727 -82.24168696 144.94875757 -79.875 140.8125 C-79.54262329 140.23176727 -79.21024658 139.65103455 -78.86779785 139.05270386 C-74.15365597 130.81270382 -69.49642409 122.54235173 -64.875 114.25 C-59.80374535 105.15066703 -54.59702847 96.14033368 -49.31982422 87.15917969 C-44.2732813 78.53888053 -39.43118811 69.81232984 -34.60571289 61.06689453 C-30.50224655 53.64996805 -26.29268973 46.30917441 -22 39 C-14.47935101 26.10745888 -7.24858115 13.04744607 0 0 Z " fill="#007B78" transform="translate(361,37)"/>
<path d="M0 0 C31.35 0 62.7 0 95 0 C99.95 8.91 104.9 17.82 110 27 C115.21980039 35.94846035 115.21980039 35.94846035 120.45703125 44.88671875 C124.95633212 52.59998544 129.27235741 60.41438504 133.5703125 68.24121094 C136.43539156 73.44590266 139.33347132 78.60997807 142.42578125 83.68359375 C142.94760986 84.54686279 143.46943848 85.41013184 144.00708008 86.29956055 C144.96843701 87.87750651 145.94506266 89.44630162 146.94018555 91.00317383 C148.98824156 94.37697166 149.98015873 96.41997368 150.1171875 100.42578125 C148.61269969 105.23909017 146.27574977 109.16790515 143.625 113.4375 C142.43436142 115.40201996 141.24429213 117.36688502 140.0546875 119.33203125 C139.40467773 120.39760254 138.75466797 121.46317383 138.08496094 122.56103516 C135.86271286 126.21451022 133.68267171 129.89238972 131.5078125 133.57421875 C131.1221109 134.22698288 130.7364093 134.87974701 130.33901978 135.55229187 C129.54579734 136.89480443 128.75259484 138.23732877 127.95941162 139.5798645 C120.87243119 151.56406823 113.69256761 163.48879543 106.44140625 175.37426758 C102.54861465 181.76247512 98.69837325 188.17397365 94.890625 194.61328125 C94.46112549 195.33925507 94.03162598 196.06522888 93.58911133 196.8132019 C91.49792019 200.34985347 89.41106814 203.88897752 87.33007812 207.43164062 C86.56908948 208.72140082 85.80802546 210.01111654 85.046875 211.30078125 C84.38526367 212.42653564 83.72365234 213.55229004 83.04199219 214.7121582 C82.03120605 216.33963989 82.03120605 216.33963989 81 218 C80.68101525 218.60204884 80.36203051 219.20409767 80.03337955 219.82439041 C78.40565036 222.58341086 77.16736781 224.62517281 74.02905464 225.63284588 C71.56399227 225.86309348 69.18661516 225.86624345 66.71166992 225.79467773 C65.32069092 225.79621101 65.32069092 225.79621101 63.90161133 225.79777527 C60.84338807 225.79290702 57.78816879 225.73850199 54.73046875 225.68359375 C52.60770804 225.67053484 50.4849262 225.66057206 48.36213684 225.65357971 C42.78025868 225.6268775 37.19965959 225.55813492 31.61828613 225.48065186 C25.92083032 225.40899021 20.22316741 225.37706187 14.52539062 225.34179688 C3.34969904 225.26676734 -7.82504404 225.14732587 -19 225 C-20.06622746 220.81213613 -19.84218818 218.97244745 -17.59936523 215.19281006 C-17.22626221 214.59808899 -16.85315918 214.00336792 -16.46875 213.390625 C-16.08662354 212.75578186 -15.70449707 212.12093872 -15.31079102 211.46685791 C-14.05401001 209.38604825 -12.77715699 207.31835397 -11.5 205.25 C-10.61771685 203.79708759 -9.73687115 202.34330138 -8.85742188 200.88867188 C-7.08155919 197.95574119 -5.29824406 195.02757488 -3.5078125 192.10351562 C-0.13437092 186.59139368 3.18186528 181.04556496 6.5 175.5 C7.70044197 173.50255677 8.90096462 171.50516202 10.1015625 169.5078125 C15.50649622 160.49958963 20.86084067 151.46122688 26.21679688 142.42382812 C40.36039132 118.563282 40.36039132 118.563282 44.8828125 111.39453125 C45.264375 110.78416016 45.6459375 110.17378906 46.0390625 109.54492188 C46.79339596 108.3415158 47.55712514 107.14396874 48.328125 105.95117188 C50.46143299 102.73624507 50.46143299 102.73624507 50.71142578 99.03710938 C50.0000931 97.00026659 49.1766983 95.1703449 48.171875 93.26171875 C47.79135986 92.53670166 47.41084473 91.81168457 47.01879883 91.06469727 C46.60009521 90.28022217 46.1813916 89.49574707 45.75 88.6875 C45.30744873 87.85210693 44.86489746 87.01671387 44.40893555 86.15600586 C40.46329652 78.76040424 36.32950224 71.47636804 32.17749023 64.1953125 C27.76370793 56.42510281 23.51402842 48.57358046 19.3125 40.6875 C15.0113444 32.61587129 10.69654901 24.5552117 6.25 16.5625 C5.85594971 15.85375732 5.46189941 15.14501465 5.0559082 14.41479492 C3.50389516 11.63752651 1.94631325 8.92004345 0.171875 6.27734375 C-1 4 -1 4 0 0 Z " fill="#00716F" transform="translate(74,117)"/>
</svg>
